HIERARCHY
ROOT SimulationBone
{
	OFFSET 0.000000 0.000000 0.000000
	CHANNELS 6 Xposition Yposition Zposition Zrotation Yrotation Xrotation 
	JOINT Hips
	{
		OFFSET 0.000000 0.000000 0.000000
		CHANNELS 6 Xposition Yposition Zposition Zrotation Yrotation Xrotation 
		JOINT RightUpLeg
		{
			OFFSET 0.103457 1.857824 10.548509
			CHANNELS 3 Zrotation Yrotation Xrotation
			JOINT RightLeg
			{
				OFFSET 43.500000 -0.000023 0.000006
				CHANNELS 3 Zrotation Yrotation Xrotation
				JOINT RightFoot
				{
					OFFSET 42.372192 0.000011 -0.000009
					CHANNELS 3 Zrotation Yrotation Xrotation
					JOINT RightToe
					{
						OFFSET 17.300005 0.000002 -0.000010
						CHANNELS 3 Zrotation Yrotation Xrotation
						End Site
						{
							OFFSET 0.000000 0.000000 0.000000
						}
					}
				}
			}
		}
		JOINT LeftUpLeg
		{
			OFFSET 0.103458 1.857836 -10.548506
			CHANNELS 3 Zrotation Yrotation Xrotation
			JOINT LeftLeg
			{
				OFFSET 43.500038 -0.000023 0.000017
				CHANNELS 3 Zrotation Yrotation Xrotation
				JOINT LeftFoot
				{
					OFFSET 42.372269 -0.000019 0.000007
					CHANNELS 3 Zrotation Yrotation Xrotation
					JOINT LeftToe
					{
						OFFSET 17.299999 -0.000003 0.000008
						CHANNELS 3 Zrotation Yrotation Xrotation
						End Site
						{
							OFFSET 0.000000 0.000000 0.000000
						}
					}
				}
			}
		}
		JOINT Spine
		{
			OFFSET 6.901969 -2.603729 0.000003
			CHANNELS 3 Zrotation Yrotation Xrotation
			JOINT Spine1
			{
				OFFSET 12.588093 -0.000007 0.000001
				CHANNELS 3 Zrotation Yrotation Xrotation
				JOINT Spine2
				{
					OFFSET 12.343206 0.000014 -0.000007
					CHANNELS 3 Zrotation Yrotation Xrotation
					JOINT Neck
					{
						OFFSET 25.832899 -0.000010 0.000002
						CHANNELS 3 Zrotation Yrotation Xrotation
						JOINT Head
						{
							OFFSET 11.766599 0.000010 -0.000001
							CHANNELS 3 Zrotation Yrotation Xrotation
							End Site
							{
								OFFSET 0.000000 0.000000 0.000000
							}
						}
					}
					JOINT RightShoulder
					{
						OFFSET 19.745895 -1.480371 6.000111
						CHANNELS 3 Zrotation Yrotation Xrotation
						JOINT RightArm
						{
							OFFSET 11.284124 -0.000010 -0.000007
							CHANNELS 3 Zrotation Yrotation Xrotation
							JOINT RightForeArm
							{
								OFFSET 33.000061 0.000006 0.000028
								CHANNELS 3 Zrotation Yrotation Xrotation
								JOINT RightHand
								{
									OFFSET 25.200001 0.000019 0.000008
									CHANNELS 3 Zrotation Yrotation Xrotation
									End Site
									{
										OFFSET 0.000000 0.000000 0.000000
									}
								}
							}
						}
					}
					JOINT LeftShoulder
					{
						OFFSET 19.746101 -1.480375 -6.000078
						CHANNELS 3 Zrotation Yrotation Xrotation
						JOINT LeftArm
						{
							OFFSET 11.284128 -0.000010 -0.000011
							CHANNELS 3 Zrotation Yrotation Xrotation
							JOINT LeftForeArm
							{
								OFFSET 33.000095 0.000022 0.000002
								CHANNELS 3 Zrotation Yrotation Xrotation
								JOINT LeftHand
								{
									OFFSET 25.199768 0.000129 0.000422
									CHANNELS 3 Zrotation Yrotation Xrotation
									End Site
									{
										OFFSET 0.000000 0.000000 0.000000
									}
								}
							}
						}
					}
				}
			}
		}
	}
}
MOTION
Frames: 13
Frame Time: 0.016667
18.829213 0.000000 -525.727914 180.000000 37.187091 180.000000 -6.072065 89.914043 -0.321760 80.686520 0.302580 177.649241 175.183200 6.198711 176.834131 -27.748670 1.974401 0.929534 92.051243 0.041279 4.781704 21.454557 0.003112 0.000017 147.603076 -4.289068 -179.665539 -14.849796 -1.375664 4.424067 65.656019 -2.873783 0.901880 21.454552 -0.003096 -0.000002 6.620427 0.208489 -0.860528 3.224739 0.440530 -1.715022 2.906789 0.430027 -1.717647 1.465943 -8.284036 -7.228252 -21.499373 12.225020 -14.217549 170.402677 -73.898055 8.467250 -4.171331 60.089632 19.742296 -33.825017 -10.739741 1.056435 7.656733 -3.871155 4.131060 -154.126920 80.935881 27.783825 -7.588506 -63.394184 -43.756177 -27.247146 12.393349 -1.012140 14.471115 7.458968 16.721258 
17.883166 0.000000 -526.513596 180.000000 36.630580 180.000000 -6.072069 90.178337 -0.293413 80.599918 0.354439 177.537433 174.603063 5.721889 175.925524 -29.732017 2.040896 1.552189 89.911954 -0.279819 4.879100 21.454558 0.003116 0.000018 148.097037 -4.171710 -178.326486 -15.378499 -1.419818 3.889559 66.616384 -2.686843 0.364318 21.454553 -0.003097 -0.000002 6.631902 0.294765 -0.836337 3.246540 0.612551 -1.664236 2.928586 0.602345 -1.667903 1.256591 -8.497952 -6.515949 -21.293593 11.661891 -13.283067 170.719266 -74.085275 8.136379 -4.078093 60.439297 17.310574 -32.071524 -9.434494 0.936526 7.607737 -3.944763 5.488459 -154.810169 81.184468 27.085302 -6.999375 -63.658065 -44.208462 -26.833828 12.118890 -0.987282 14.426422 7.203458 16.795749 
16.939662 0.000000 -527.292890 180.000000 36.061311 180.000000 -6.054180 90.441060 -0.253042 80.513910 0.353034 177.595851 173.726556 5.091807 175.044096 -32.173499 1.920360 2.331128 87.427753 -0.684048 5.005092 21.454556 0.003112 0.000018 148.626814 -3.874325 -176.517934 -15.879794 -1.488872 3.183636 67.646118 -2.355578 -0.136009 21.454555 -0.003095 -0.000001 6.635966 0.364495 -0.830827 3.253731 0.751870 -1.651280 2.935761 0.741747 -1.655790 1.096023 -8.617928 -5.796704 -21.088946 11.055466 -12.304465 170.843373 -74.305327 8.001648 -3.743069 60.435616 16.340109 -30.834549 -8.535298 0.854584 7.645204 -3.828382 6.594698 -155.405959 81.358242 26.477651 -6.470678 -63.894352 -44.700545 -26.496956 11.899139 -0.967418 14.319785 7.037703 16.780346 
16.000703 0.000000 -528.067016 180.000000 35.475897 180.000000 -6.020240 90.672310 -0.198297 80.448693 0.347737 177.808918 172.580903 4.222101 174.077575 -35.055204 1.748181 3.411513 84.607526 -1.390843 4.611485 21.454555 0.003105 0.000018 149.138054 -3.510500 -174.765703 -16.508154 -1.544344 2.598589 68.747649 -2.080040 -0.569873 21.454557 -0.003091 0.000000 6.633011 0.425447 -0.832167 3.246981 0.873724 -1.652310 2.928993 0.863602 -1.657556 1.042767 -8.688717 -5.112607 -20.863508 10.434108 -11.339010 170.667493 -74.571605 8.172502 -3.129000 60.177359 17.026296 -30.151931 -8.183070 0.816198 7.775767 -3.453589 7.289386 -155.869873 81.474757 26.005129 -5.902123 -64.112812 -45.247488 -26.281273 11.737372 -0.953510 14.174694 6.975714 16.630713 
15.067738 0.000000 -528.836455 180.000000 34.870598 180.000000 -5.973896 90.846957 -0.128646 80.433949 0.389941 178.138759 171.227051 3.049236 172.934381 -38.328965 1.687137 4.880119 81.521841 -2.630347 3.245034 21.454556 0.003102 0.000018 149.603541 -3.187728 -173.466944 -17.361631 -1.556288 2.345273 69.925629 -1.999243 -0.903742 21.454555 -0.003088 0.000000 6.627416 0.486867 -0.825801 3.234997 0.996290 -1.637947 2.917000 0.986248 -1.643937 1.138500 -8.775956 -4.499926 -20.595319 9.830213 -10.445492 170.132849 -74.895574 8.708263 -2.339397 59.807419 19.071570 -29.973923 -8.406317 0.827230 7.953744 -2.755393 7.661408 -156.182177 81.568301 25.686729 -5.210877 -64.328541 -45.854674 -26.223767 11.643445 -0.946589 14.014097 6.991553 16.336258 
14.141744 0.000000 -529.599846 180.000000 34.245181 180.000000 -5.910127 90.962463 -0.042851 80.496115 0.528410 178.538435 169.745022 1.617291 171.820662 -41.937231 1.756988 6.503180 78.480389 -4.253056 1.246347 21.454558 0.003104 0.000018 150.107804 -2.986105 -172.568677 -18.317920 -1.530148 2.412897 71.148741 -2.114262 -1.161986 21.454553 -0.003088 0.000000 6.625937 0.561992 -0.801127 3.231260 1.145824 -1.586578 2.913243 1.136081 -1.593474 1.362076 -8.868710 -3.957932 -20.270490 9.246060 -9.621768 169.376738 -75.249290 9.468795 -1.577932 59.349069 21.493132 -30.199919 -8.876858 0.862840 8.082492 -1.797328 8.222174 -156.444906 81.648907 25.418860 -4.432522 -64.516804 -46.503713 -26.299559 11.630711 -0.946919 13.815009 7.013534 16.029032 
13.223627 0.000000 -530.355130 180.000000 33.603403 180.000000 -5.826090 91.023041 0.058202 80.652646 0.801675 178.967657 168.193220 0.019887 170.966201 -45.816616 1.939254 7.991120 75.802130 -5.974959 -0.950331 21.454559 0.003108 0.000017 150.739787 -2.963630 -171.895087 -19.228472 -1.484103 2.713677 72.380522 -2.371723 -1.370873 21.454553 -0.003091 0.000001 6.634861 0.663074 -0.750961 3.248383 1.346683 -1.483418 2.930318 1.337558 -1.491528 1.674096 -8.947719 -3.476176 -19.889280 8.678044 -8.854989 168.588613 -75.591844 10.261526 -1.009620 58.817277 23.347827 -30.732910 -9.254092 0.897760 8.090864 -0.694616 9.430475 -156.738854 81.716076 25.119744 -3.667913 -64.639441 -47.147979 -26.468331 11.700674 -0.954168 13.563462 6.987347 15.847461 
12.313601 0.000000 -531.099859 180.000000 32.950924 180.000000 -5.736939 91.037308 0.162068 80.889265 1.208015 179.410274 166.571580 -1.603900 170.416020 -49.878330 2.301013 9.130084 73.695923 -7.567771 -3.189265 21.454560 0.003111 0.000016 151.488431 -3.096803 -171.226381 -20.062479 -1.453209 3.072593 73.603265 -2.641799 -1.509317 21.454555 -0.003095 0.000001 6.656115 0.794446 -0.677885 3.290346 1.607593 -1.333403 2.972212 1.599371 -1.343090 2.022518 -9.040105 -3.042659 -19.497671 8.130410 -8.148866 167.917850 -75.865017 10.936202 -0.644470 58.247441 24.444141 -31.542028 -9.505335 0.930436 8.002263 0.362657 11.125929 -156.921339 81.752773 24.934207 -3.147507 -64.643012 -47.665115 -26.689411 11.804111 -0.964554 13.324369 6.972226 15.810850 
11.410510 0.000000 -531.830217 180.000000 32.294045 180.000000 -5.659730 91.015146 0.253287 81.180542 1.720653 179.855369 164.871676 -3.112764 170.199502 -54.020599 2.848834 9.746313 72.290329 -8.838750 -5.415315 21.454560 0.003112 0.000017 152.308567 -3.337536 -170.409671 -20.831771 -1.465714 3.348205 74.804657 -2.818140 -1.547925 21.454554 -0.003099 0.000000 6.689305 0.953430 -0.587665 3.356577 1.923297 -1.148011 3.038361 1.916191 -1.159609 2.357700 -9.167498 -2.644282 -19.139521 7.601329 -7.500749 167.517482 -76.016358 11.339099 -0.451586 57.670094 24.818975 -32.602656 -9.685252 0.964587 7.842167 1.190505 12.986359 -156.874036 81.744213 24.982299 -3.107784 -64.482853 -47.918098 -26.917168 11.879201 -0.973146 13.176475 7.042041 15.905669 
10.512241 0.000000 -532.542039 180.000000 31.637689 180.000000 -5.602263 90.967087 0.312065 81.487995 2.252790 -179.714502 163.111543 -4.394102 170.481098 -58.113338 3.338150 9.803539 71.527871 -9.727354 -7.660043 21.454560 0.003111 0.000018 153.118114 -3.606996 -169.604102 -21.598696 -1.488313 3.617167 75.979317 -2.960075 -1.489949 21.454553 -0.003100 -0.000001 6.729037 1.117267 -0.489115 3.436577 2.248406 -0.945492 3.118272 2.242518 -0.959060 2.654175 -9.285054 -2.264222 -18.806533 7.052041 -6.869836 167.541930 -76.030423 11.313604 -0.397867 57.092443 24.669128 -33.848863 -9.890143 1.003955 7.615868 1.700991 14.651895 -156.815102 81.700017 25.042824 -3.668905 -64.156197 -47.797696 -27.086789 11.864384 -0.975124 13.176415 7.215248 16.108880 
9.616171 0.000000 -533.232051 180.000000 30.984419 180.000000 -5.563406 90.910285 0.323437 81.776897 2.698533 -179.319857 161.320162 -5.331707 171.351581 -62.007010 3.532041 9.285798 71.344847 -10.143377 -9.854605 21.454558 0.003111 0.000018 153.858479 -3.806712 -168.980931 -22.407351 -1.482833 3.962718 77.118811 -3.135243 -1.352592 21.454551 -0.003097 -0.000001 6.768565 1.257887 -0.390730 3.516916 2.526949 -0.743763 3.198527 2.522275 -0.759021 2.907173 -9.359628 -1.887852 -18.482931 6.465756 -6.227495 168.023170 -75.918643 10.826588 -0.431706 56.543784 24.180547 -35.205700 -10.193377 1.053312 7.310470 1.814965 15.815306 -156.986142 81.643673 24.870546 -4.860270 -63.687515 -47.240860 -27.130330 11.715157 -0.966448 13.331410 7.474968 16.373703 
8.718582 0.000000 -533.896651 180.000000 30.334518 180.000000 -5.516004 90.887741 0.301223 82.040298 2.936737 -178.977090 159.559680 -5.811599 172.485253 -65.507305 3.454697 7.999213 71.823700 -9.718001 -11.487342 21.454557 0.003110 0.000017 154.590185 -3.818804 -168.455059 -23.179890 -1.468215 4.280582 78.194231 -3.280795 -1.161686 21.454550 -0.003093 -0.000001 6.801099 1.345993 -0.296505 3.583839 2.700442 -0.551904 3.265387 2.696924 -0.568217 3.168258 -9.471461 -1.515081 -18.167677 5.954206 -5.627570 168.570543 -75.769319 10.273229 -0.406565 56.171382 23.355459 -36.600363 -10.535334 1.108783 6.879460 1.402252 16.418660 -157.399398 81.629277 24.452026 -6.526767 -63.182205 -46.277767 -26.986642 11.454909 -0.946960 13.470555 7.722278 16.563921 
7.814948 0.000000 -534.531727 180.000000 29.688642 180.000000 -5.435297 90.934973 0.265563 82.280989 2.883837 -178.703895 157.900811 -5.791393 173.501077 -68.425822 3.199045 5.798138 72.925515 -8.203670 -12.147365 21.454556 0.003109 0.000016 155.386588 -3.568731 -167.908137 -23.827605 -1.475293 4.460478 79.179869 -3.327578 -0.940500 21.454549 -0.003092 0.000000 6.821795 1.361240 -0.206634 3.627350 2.728244 -0.371173 3.308871 2.725817 -0.387658 3.495385 -9.692543 -1.145738 -17.869389 5.605639 -5.110940 168.812210 -75.675583 10.029871 -0.205932 56.109897 22.200718 -37.968838 -10.841506 1.162158 6.286230 0.381952 16.430805 -158.050439 81.703045 23.791039 -8.487458 -62.729117 -44.973858 -26.633884 11.128624 -0.919655 13.441122 7.868983 16.576172 
